<?xml version="1.0" standalone="no"?>
<!DOCTYPE svg PUBLIC "-//W3C//DTD SVG 20010904//EN"
 "http://www.w3.org/TR/2001/REC-SVG-20010904/DTD/svg10.dtd">
<svg version="1.0" xmlns="http://www.w3.org/2000/svg"
 width="300.000000pt" height="300.000000pt" viewBox="0 0 300.000000 300.000000"
 preserveAspectRatio="xMidYMid meet">
<metadata>
Created by potrace 1.14, written by Peter Selinger 2001-2017
</metadata>
<g transform="translate(0.000000,300.000000) scale(0.100000,-0.100000)"
fill="#000000" stroke="none">
<path d="M329 2996 c-2 -3 -17 -7 -33 -10 -109 -20 -232 -137 -275 -261 -20
-59 -20 -73 -18 -1241 l2 -1180 38 -77 c44 -89 114 -156 205 -196 l57 -26
1190 0 c655 0 1199 3 1210 7 24 8 82 34 113 52 62 35 130 126 160 211 21 60
21 65 19 1241 l-2 1180 -38 76 c-44 91 -102 146 -197 192 l-65 31 -1181 3
c-649 1 -1183 0 -1185 -2z"/>
</g>
</svg>
